<svg width="150" height="150" viewBox="0 0 150 150" fill="none" xmlns="http://www.w3.org/2000/svg">
<g clip-path="url(#clip0_1_18)">
<path d="M63.5711 94.6548L36.1432 45.1415C34.4456 42.1074 31.9799 39.5731 28.9934 37.7931C26.007 36.013 22.6049 35.0498 19.1285 35H2.42706C2.17775 34.986 1.9295 35.042 1.71036 35.1617C1.49122 35.2814 1.30993 35.46 1.18697 35.6774C1.06401 35.8947 1.00429 36.1421 1.01456 36.3916C1.02483 36.6411 1.10467 36.8827 1.24508 37.0892L38.5071 104.495C40.1452 107.576 42.5954 110.15 45.5921 111.937C48.5888 113.725 52.0177 114.658 55.507 114.636H74.5961L71.913 109.864L74.5961 114.636H88.3278C88.863 114.664 89.3956 114.545 89.8686 114.293C90.3415 114.041 90.737 113.665 91.0126 113.205C91.2883 112.745 91.4337 112.219 91.4334 111.683C91.4331 111.148 91.2871 110.622 91.0109 110.162C85.4812 110.199 80.0384 108.786 75.2243 106.066C70.4101 103.345 66.3924 99.4107 63.5711 94.6548Z" fill="url(#paint0_linear_1_18)"/>
<path d="M120.838 94.6548L93.3987 45.1414C91.7311 42.0845 89.2738 39.5309 86.2832 37.7471C83.2925 35.9633 79.878 35.0146 76.3958 35H59.6944C59.4451 34.986 59.1968 35.042 58.9777 35.1617C58.7586 35.2814 58.5773 35.46 58.4543 35.6773C58.3314 35.8947 58.2716 36.1421 58.2819 36.3915C58.2922 36.641 58.372 36.8827 58.5124 37.0892L95.7834 104.495C97.4215 107.576 99.8717 110.15 102.868 111.937C105.865 113.725 109.294 114.658 112.783 114.636H145.879C146.414 114.664 146.947 114.545 147.42 114.293C147.893 114.041 148.288 113.665 148.564 113.205C148.839 112.745 148.985 112.219 148.984 111.683C148.984 111.147 148.838 110.622 148.562 110.162C143.006 110.137 137.547 108.701 132.698 105.989C127.848 103.276 123.768 99.3762 120.838 94.6548Z" fill="url(#paint1_linear_1_18)"/>
<path d="M123.522 52.3013C124.49 55.2485 126.48 57.7524 129.133 59.3608C131.785 60.9692 134.926 61.5762 137.987 61.0721C141.048 60.568 143.827 58.9861 145.824 56.612C147.821 54.2378 148.903 51.228 148.875 48.1259C148.845 44.6545 147.453 41.3338 144.998 38.8788C142.544 36.4238 139.224 35.0309 135.752 35H110.995C110.582 35.0307 110.181 35.1555 109.823 35.3648C109.466 35.574 109.16 35.8622 108.931 36.2074C108.701 36.5526 108.554 36.9457 108.499 37.3566C108.445 37.7675 108.485 38.1854 108.617 38.5785C118.749 38.8769 123.522 52.3013 123.522 52.3013Z" fill="url(#paint2_linear_1_18)"/>
</g>
<defs>
<linearGradient id="paint0_linear_1_18" x1="161.599" y1="5.37105" x2="-44.3701" y2="159.347" gradientUnits="userSpaceOnUse">
<stop stop-color="#F7931E"/>
<stop offset="0.999" stop-color="#E3083B"/>
</linearGradient>
<linearGradient id="paint1_linear_1_18" x1="176.014" y1="30.2194" x2="-29.3802" y2="184.841" gradientUnits="userSpaceOnUse">
<stop stop-color="#F7931E"/>
<stop offset="0.999" stop-color="#E3083B"/>
</linearGradient>
<linearGradient id="paint2_linear_1_18" x1="197.962" y1="68.1474" x2="58.6893" y2="259.595" gradientUnits="userSpaceOnUse">
<stop stop-color="#F7931E"/>
<stop offset="0.999" stop-color="#E3083B"/>
</linearGradient>
<clipPath id="clip0_1_18">
<rect width="147.996" height="79.6362" fill="white" transform="translate(1 35)"/>
</clipPath>
</defs>
</svg>
